<svg xmlns="http://www.w3.org/2000/svg" version="1.1" xmlns:xlink="http://www.w3.org/1999/xlink" xmlns:svgjs="http://svgjs.com/svgjs" preserveAspectRatio="none" viewBox="0 0 1440 560">
<g mask="url(&quot;#SvgjsMask1000&quot;)" fill="none"><rect width="1440" height="560" x="0" y="0"></rect><path d="M981.35 413.96a23.02 23.02 0 1 0-8.39-45.27z" stroke="#037b0b"></path><path d="M1290.54 526.13a51.43 51.43 0 1 0 80.12-64.51z" fill="#d3b714" style="--darkreader-inline-fill:#a99210;"></path><path d="M737.43 407.33L772.19 407.33L772.19 457.98L737.43 457.98z" stroke="#d3b714" style="--darkreader-inline-stroke:#edd33d;"></path><path d="M1228.66 541.01 a36.64 36.64 0 1 0 73.28 0 a36.64 36.64 0 1 0 -73.28 0z" fill="#e73635" style="--darkreader-inline-fill:#a71514;"></path><path d="M562.27 430.57L585.07 430.57L585.07 453.4L562.27 453.4z" fill="#037b0b" style="--darkreader-inline-fill:#77fc80;"></path><path d="M164.2 122.66 a54.68 54.68 0 1 0 109.36 0 a54.68 54.68 0 1 0 -109.36 0z" fill="#d3b714" style="--darkreader-inline-fill:#a99210;"></path><path d="M944.64 308.94L972.02 308.94L972.02 336.32L944.64 336.32z" fill="#037b0b" style="--darkreader-inline-fill:#77fc80;"></path><path d="M425.5 501.81L462.94 501.81L462.94 539.25L425.5 539.25z" fill="#e73635" style="--darkreader-inline-fill:#e94544;"></path><path d="M111.44 371.49 a16.35 16.35 0 1 0 32.7 0 a16.35 16.35 0 1 0 -32.7 0z" fill="#e73635" style="--darkreader-inline-fill:#e94544;"></path><path d="M1148.81 431.22 a45.87 45.87 0 1 0 91.74 0 a45.87 45.87 0 1 0 -91.74 0z" fill="#d3b714" style="--darkreader-inline-fill:#a99210;"></path><path d="M1371.59 9.47a50.75 50.75 0 1 0 91.24 44.48z" fill="#037b0b" ></path><path d="M564.91 132.01L573.7 132.01L573.7 179.68L564.91 179.68z" stroke="#037b0b"></path><path d="M365.97 490.17L390.9 490.17L390.9 511.78L365.97 511.78z" stroke="#037b0b"></path><path d="M43.8 49.3a24.22 24.22 0 1 0-47.55-9.23z" stroke="#037b0b"></path><path d="M1144.47 482a46.23 46.23 0 1 0-60.22-70.16z" fill="#e73635" style="--darkreader-inline-fill:#a71514;"></path><path d="M695.18 6.78 a20.56 20.56 0 1 0 41.12 0 a20.56 20.56 0 1 0 -41.12 0z" stroke="#037b0b"></path><path d="M135.75 430.63L155.64 430.63L155.64 462.03L135.75 462.03z" fill="#e73635" style="--darkreader-inline-fill:#e94544;"></path><path d="M183 420.25L213.5 420.25L213.5 423.82L183 423.82z" fill="#037b0b" style="--darkreader-inline-fill:#77fc80;"></path><path d="M1186.54 506.82 a23.8 23.8 0 1 0 47.6 0 a23.8 23.8 0 1 0 -47.6 0z" stroke="#037b0b"></path><path d="M1415.64 173.94 a14.79 14.79 0 1 0 29.58 0 a14.79 14.79 0 1 0 -29.58 0z" stroke="#e73635" style="--darkreader-inline-stroke:#e94544;"></path><path d="M1137.4 79.03 a40.96 40.96 0 1 0 81.92 0 a40.96 40.96 0 1 0 -81.92 0z" fill="#d3b714" style="--darkreader-inline-fill:#a99210;"></path><path d="M1331.76 528.27a51.8 51.8 0 1 0-100.36 25.71z" fill="#037b0b" ></path><path d="M527.38 279.32a39.14 39.14 0 1 0-71.43 32.01z" stroke="#d3b714" style="--darkreader-inline-stroke:#edd33d;"></path><path d="M235.08 556.78L289.53 556.78L289.53 611.23L235.08 611.23z" stroke="#d3b714" style="--darkreader-inline-stroke:#edd33d;"></path><path d="M1244.19 161.56 a29.67 29.67 0 1 0 59.34 0 a29.67 29.67 0 1 0 -59.34 0z" fill="#e73635" style="--darkreader-inline-fill:#a71514;"></path><path d="M687.58 450.92L729.17 450.92L729.17 492.51L687.58 492.51z" fill="#e73635" style="--darkreader-inline-fill:#e94544;"></path><path d="M331.22 57.53L368.21 57.53L368.21 75.73L331.22 75.73z" stroke="#e73635" style="--darkreader-inline-stroke:#e94544;"></path><path d="M1221.04 205.11L1223.58 205.11L1223.58 207.65L1221.04 207.65z" fill="#e73635" style="--darkreader-inline-fill:#e94544;"></path><path d="M707.7 187.17 a36.94 36.94 0 1 0 73.88 0 a36.94 36.94 0 1 0 -73.88 0z" fill="#d3b714" style="--darkreader-inline-fill:#a99210;"></path><path d="M1247.7 546.45 a38.12 38.12 0 1 0 76.24 0 a38.12 38.12 0 1 0 -76.24 0z" stroke="#d3b714" style="--darkreader-inline-stroke:#edd33d;"></path><path d="M9.33 536.5 a37.77 37.77 0 1 0 75.54 0 a37.77 37.77 0 1 0 -75.54 0z" stroke="#037b0b"></path><path d="M24.79 43.44L80.72 43.44L80.72 99.37L24.79 99.37z" stroke="#037b0b"></path><path d="M643.66 282.89L673.29 282.89L673.29 312.52L643.66 312.52z" stroke="#037b0b"></path></g><defs><mask id="SvgjsMask1000"><rect width="1440" height="560" fill="#ffffff" style="--darkreader-inline-fill:#181a1b;"></rect></mask></defs></svg>